<svg width="374" height="250" viewBox="0 0 374 250" fill="none" xmlns="http://www.w3.org/2000/svg">
<g filter="url(#filter0_d)">
<path d="M322.631 5.9715C333.412 21.6453 336.674 36.2954 322.414 51.1737C314.058 59.8922 299.482 61.6926 287.958 64.142C281.686 65.4751 273.208 69.0412 266.965 67.6635C263.104 66.8115 254.502 65.6088 250.807 66.3942C241.404 68.393 233.443 69.356 226.455 75.7515C206.102 94.3793 217.575 113.639 222.115 135C224.169 144.664 230.539 159.406 228.9 168.889C226.496 182.806 221.063 183.725 208.577 186.379C195.387 189.183 187.043 189.464 175.193 181.768C165.817 175.679 160.785 161.35 153.989 152.826C148.516 145.962 144.397 138.285 137.511 133.332C130.678 128.417 133.86 125.119 123.482 127.325C116.015 128.912 108.547 130.499 101.08 132.087C95.9462 133.178 90.8124 134.269 85.6786 135.36C79.6039 136.652 76.8023 140.416 71.2424 142.192C59.9113 145.81 51.2904 166.277 45.3791 175.912C38.7223 186.761 37.3828 200.25 31.282 210.894C27.0001 218.364 27.295 231.967 20.0547 237.74" stroke="#403636" stroke-width="7" stroke-linecap="round"/>
</g>
<defs>
<filter id="filter0_d" x="-18.1522" y="0.8479" width="391.56" height="249.044" filterUnits="userSpaceOnUse" color-interpolation-filters="sRGB">
<feFlood flood-opacity="0" result="BackgroundImageFix"/>
<feColorMatrix in="SourceAlpha" type="matrix" values="0 0 0 0 0 0 0 0 0 0 0 0 0 0 0 0 0 0 127 0" result="hardAlpha"/>
<feOffset dx="4" dy="4"/>
<feGaussianBlur stdDeviation="2"/>
<feComposite in2="hardAlpha" operator="out"/>
<feColorMatrix type="matrix" values="0 0 0 0 0 0 0 0 0 0 0 0 0 0 0 0 0 0 0.2 0"/>
<feBlend mode="normal" in2="BackgroundImageFix" result="effect1_dropShadow"/>
<feBlend mode="normal" in="SourceGraphic" in2="effect1_dropShadow" result="shape"/>
</filter>
</defs>
</svg>
