<svg width="57" height="57" viewBox="0 0 57 57" fill="none" xmlns="http://www.w3.org/2000/svg">
<path d="M40.375 5.75H16.625C10.0666 5.75 4.75 11.0666 4.75 17.625V41.375C4.75 47.9334 10.0666 53.25 16.625 53.25H40.375C46.9334 53.25 52.25 47.9334 52.25 41.375V17.625C52.25 11.0666 46.9334 5.75 40.375 5.75Z" stroke="white" stroke-width="2" stroke-linecap="round" stroke-linejoin="round"/>
<path d="M38 27.004C38.2931 28.9806 37.9555 30.9992 37.0352 32.7729C36.1149 34.5465 34.6587 35.9848 32.8739 36.8832C31.089 37.7816 29.0663 38.0943 27.0935 37.7768C25.1207 37.4594 23.2982 36.5279 21.8853 35.115C20.4723 33.702 19.5409 31.8796 19.2234 29.9067C18.906 27.9339 19.2187 25.9112 20.117 24.1264C21.0154 22.3415 22.4537 20.8854 24.2274 19.9651C26.001 19.0447 28.0197 18.7071 29.9963 19.0002C32.0125 19.2992 33.879 20.2387 35.3203 21.68C36.7615 23.1212 37.701 24.9878 38 27.004Z" stroke="white" stroke-width="2" stroke-linecap="round" stroke-linejoin="round"/>
<path d="M41.5625 15.4375H41.5854" stroke="white" stroke-width="2" stroke-linecap="round" stroke-linejoin="round"/>
</svg>
