<svg width="346" height="225" viewBox="0 0 346 225" fill="none" xmlns="http://www.w3.org/2000/svg">
<path d="M156.678 -138.647C167.176 -142.733 178.824 -142.733 189.322 -138.647L268.786 -107.718C278.738 -103.845 286.988 -96.5586 292.061 -87.1616L336.067 -5.65427C340.803 3.11639 342.492 13.211 340.87 23.0455L325.396 116.892C323.73 126.994 318.669 136.227 311.049 143.064L244.993 202.336C236.736 209.745 226.034 213.843 214.94 213.843L131.06 213.843C119.966 213.843 109.264 209.745 101.007 202.336L34.9511 143.064C27.3306 136.227 22.2698 126.994 20.6041 116.892L5.12972 23.0455C3.50811 13.211 5.19749 3.11639 9.93278 -5.65428L53.9386 -87.1616C59.0121 -96.5586 67.2621 -103.845 77.214 -107.718L156.678 -138.647Z" fill="#191414"/>
<path d="M78.4392 84.5077C78.4392 89.0615 76.829 92.2821 73.6085 94.1692C70.388 96.0564 66.1521 97 60.9008 97H46.7469V54.3539H60.2546C65.1367 54.3539 69.0751 55.2051 72.07 56.9077C75.0854 58.5897 76.5931 61.3692 76.5931 65.2462C76.5931 67.6667 75.8546 69.6564 74.3777 71.2154C72.9008 72.7744 71.0341 73.841 68.7777 74.4154C71.5059 74.8667 73.7931 75.8821 75.6392 77.4615C77.5059 79.041 78.4392 81.3897 78.4392 84.5077ZM66.4392 66.2615C66.4392 64.6 65.9162 63.3897 64.87 62.6308C63.8238 61.8718 62.1828 61.4923 59.9469 61.4923H56.8392V71.3692H60.2546C62.429 71.3692 63.9982 70.9692 64.9623 70.1692C65.9469 69.3692 66.4392 68.0667 66.4392 66.2615ZM68.0392 84.1077C68.0392 81.9744 67.4238 80.4462 66.1931 79.5231C64.9828 78.6 63.2495 78.1385 60.9931 78.1385H56.8392V89.6462H60.5623C62.8597 89.6462 64.6751 89.2564 66.0085 88.4769C67.3623 87.6974 68.0392 86.241 68.0392 84.1077ZM109.476 63.3385C111.425 63.3385 113.22 63.6667 114.861 64.3231L113.046 77.9846H106.953V71.9539C105.148 72.2821 103.548 73.2667 102.153 74.9077C100.758 76.5487 99.661 78.6205 98.861 81.1231V90.4769H105.323V97H84.8302V90.4769H89.1379V70.7846H84.8302V64.3231H96.5533L98.3379 71.6769C99.5071 68.8667 100.994 66.7744 102.799 65.4C104.625 64.0256 106.851 63.3385 109.476 63.3385ZM148.944 87.5846C148.944 88.7949 149.108 89.6872 149.437 90.2615C149.765 90.8154 150.319 91.2359 151.098 91.5231L149.098 97.9231C147.108 97.7385 145.457 97.3077 144.144 96.6308C142.852 95.9333 141.837 94.9282 141.098 93.6154C139.888 95.0718 138.319 96.1795 136.39 96.9385C134.483 97.6769 132.462 98.0462 130.329 98.0462C128.114 98.0462 126.165 97.6154 124.483 96.7539C122.821 95.8718 121.539 94.6615 120.637 93.1231C119.734 91.5641 119.283 89.7795 119.283 87.7692C119.283 85.4308 119.908 83.4308 121.16 81.7692C122.411 80.1077 124.226 78.8462 126.606 77.9846C128.985 77.1026 131.847 76.6615 135.19 76.6615H139.59V75.4308C139.59 72.0872 137.437 70.4154 133.129 70.4154C132.042 70.4154 130.667 70.5692 129.006 70.8769C127.365 71.1846 125.755 71.6051 124.175 72.1385L121.929 65.6769C123.98 64.8974 126.144 64.3026 128.421 63.8923C130.698 63.4615 132.78 63.2462 134.667 63.2462C139.467 63.2462 143.047 64.2205 145.406 66.1692C147.765 68.118 148.944 70.9897 148.944 74.7846V87.5846ZM133.683 91.0923C134.79 91.0923 135.908 90.7744 137.037 90.1385C138.165 89.4821 139.016 88.6 139.59 87.4923V82.2H137.19C134.524 82.2 132.544 82.6103 131.252 83.4308C129.96 84.2513 129.314 85.4718 129.314 87.0923C129.314 88.3641 129.693 89.3487 130.452 90.0462C131.231 90.7436 132.308 91.0923 133.683 91.0923ZM158.351 97V64.3231L166.843 64.3231L167.52 68.1077C168.997 66.4462 170.546 65.2256 172.166 64.4462C173.787 63.6462 175.622 63.2462 177.674 63.2462C180.484 63.2462 182.679 64.1077 184.258 65.8308C185.858 67.5333 186.658 69.9231 186.658 73V97H176.935V75.8C176.935 74.4462 176.833 73.3795 176.628 72.6C176.443 71.8205 176.125 71.2667 175.674 70.9385C175.222 70.5897 174.597 70.4154 173.797 70.4154C172.812 70.4154 171.848 70.7333 170.905 71.3692C169.981 71.9846 169.038 72.9077 168.074 74.1385V97H158.351ZM213.849 50.3231L223.572 51.3385V97H214.957L214.465 93.4C213.48 94.7949 212.229 95.9231 210.711 96.7846C209.193 97.6256 207.429 98.0462 205.419 98.0462C202.772 98.0462 200.547 97.3385 198.742 95.9231C196.957 94.4872 195.624 92.4667 194.742 89.8615C193.86 87.2359 193.419 84.1385 193.419 80.5692C193.419 77.2256 193.942 74.241 194.988 71.6154C196.054 68.9897 197.562 66.9385 199.511 65.4615C201.48 63.9846 203.788 63.2462 206.434 63.2462C209.367 63.2462 211.839 64.2513 213.849 66.2615V50.3231ZM209.049 70.3539C207.285 70.3539 205.911 71.1846 204.926 72.8462C203.942 74.4872 203.449 77.0821 203.449 80.6308C203.449 84.4256 203.88 87.0923 204.742 88.6308C205.624 90.1487 206.875 90.9077 208.496 90.9077C210.547 90.9077 212.331 89.6462 213.849 87.1231V73.0308C213.131 72.1487 212.393 71.4821 211.634 71.0308C210.875 70.5795 210.013 70.3539 209.049 70.3539ZM269.093 97V64.3231H277.585L278.262 68.1077C279.739 66.4462 281.288 65.2256 282.908 64.4462C284.529 63.6462 286.365 63.2462 288.416 63.2462C291.226 63.2462 293.421 64.1077 295.001 65.8308C296.601 67.5333 297.401 69.9231 297.401 73V97H287.677V75.8C287.677 74.4462 287.575 73.3795 287.37 72.6C287.185 71.8205 286.867 71.2667 286.416 70.9385C285.965 70.5897 285.339 70.4154 284.539 70.4154C283.554 70.4154 282.59 70.7333 281.647 71.3692C280.724 71.9846 279.78 72.9077 278.816 74.1385V97H269.093Z" fill="white"/>
<g filter="url(#filter0_d)">
<ellipse cx="245" cy="84.5" rx="17" ry="17.5" fill="#2EBD59"/>
<path d="M261.5 84.5C261.5 93.9026 254.099 101.5 245 101.5C235.901 101.5 228.5 93.9026 228.5 84.5C228.5 75.0974 235.901 67.5 245 67.5C254.099 67.5 261.5 75.0974 261.5 84.5Z" stroke="#403636"/>
</g>
<path d="M252.434 84.5C252.434 88.7479 249.092 92.1666 245 92.1666C240.908 92.1666 237.567 88.7479 237.567 84.5C237.567 80.252 240.908 76.8333 245 76.8333C249.092 76.8333 252.434 80.252 252.434 84.5Z" fill="white" stroke="#10943F"/>
<line x1="266.381" y1="66.6765" x2="294.381" y2="99.6765" stroke="#191414"/>
<line x1="87.424" y1="67.735" x2="107.424" y2="99.735" stroke="black"/>
<line x1="123.377" y1="68.6716" x2="150.377" y2="99.6716" stroke="black"/>
<line x1="158.376" y1="67.6707" x2="186.376" y2="99.6708" stroke="black"/>
<line x1="197.389" y1="68.6861" x2="222.389" y2="99.6861" stroke="black"/>
<line x1="233.369" y1="73.6621" x2="255.369" y2="97.6621" stroke="black"/>
<line x1="49.4062" y1="51.7084" x2="77.4062" y2="90.7084" stroke="black"/>
<defs>
<filter id="filter0_d" x="224" y="67" width="42" height="43" filterUnits="userSpaceOnUse" color-interpolation-filters="sRGB">
<feFlood flood-opacity="0" result="BackgroundImageFix"/>
<feColorMatrix in="SourceAlpha" type="matrix" values="0 0 0 0 0 0 0 0 0 0 0 0 0 0 0 0 0 0 127 0" result="hardAlpha"/>
<feOffset dy="4"/>
<feGaussianBlur stdDeviation="2"/>
<feColorMatrix type="matrix" values="0 0 0 0 1 0 0 0 0 1 0 0 0 0 1 0 0 0 0.25 0"/>
<feBlend mode="normal" in2="BackgroundImageFix" result="effect1_dropShadow"/>
<feBlend mode="normal" in="SourceGraphic" in2="effect1_dropShadow" result="shape"/>
</filter>
</defs>
</svg>
