<svg width="304" height="158" viewBox="0 0 304 158" fill="none" xmlns="http://www.w3.org/2000/svg">
<rect x="7.25894" y="47.2273" width="280" height="84" transform="rotate(-8 7.25894 47.2273)" fill="white" stroke="#10943F" stroke-width="4"/>
<circle cx="286.5" cy="5.5" r="5.5" fill="#10943F"/>
<circle cx="298.5" cy="92.5" r="5.5" fill="#10943F"/>
<circle cx="16.5001" cy="132.5" r="5.5" fill="#10943F"/>
<circle cx="5.50006" cy="45.5" r="5.5" fill="#10943F"/>
<path d="M33.1786 91.1132L34.8077 102.014L28.4332 102.966L23.8095 72.0286L35.8786 70.2249C38.2018 69.8777 40.3051 69.9978 42.1887 70.5852C44.0864 71.1705 45.6273 72.1784 46.8114 73.609C47.9934 75.0254 48.7336 76.7322 49.0321 78.7296C49.4852 81.761 48.8018 84.3106 46.982 86.3783C45.1742 88.4298 42.4359 89.7297 38.767 90.278L33.1786 91.1132ZM32.407 85.9498L38.1015 85.0988C39.7872 84.8468 41.01 84.2586 41.7697 83.3341C42.5435 82.4074 42.8204 81.2075 42.6002 79.7343C42.3737 78.2185 41.7444 77.0599 40.7122 76.2584C39.68 75.4568 38.3756 75.1594 36.799 75.366L30.9557 76.2393L32.407 85.9498ZM66.4635 79.6653C65.6108 79.6769 64.8657 79.7303 64.2282 79.8256C61.9051 80.1727 60.4998 81.1865 60.0123 82.8669L62.2606 97.9107L56.1199 98.8285L52.6839 75.8377L58.4847 74.9708L59.0643 77.6864C59.9813 75.3916 61.5305 74.0811 63.712 73.7551C64.392 73.6535 65.0432 73.6503 65.6656 73.7455L66.4635 79.6653ZM68.5428 85.0025C68.2019 82.7218 68.3373 80.6234 68.9488 78.7073C69.5603 76.7912 70.6146 75.2216 72.1118 73.9986C73.6231 72.7735 75.4695 71.9979 77.651 71.6719C80.7532 71.2083 83.4236 71.7795 85.6622 73.3855C87.9149 74.9894 89.398 77.4035 90.1116 80.6277L90.3891 82.1937C90.9162 85.721 90.3551 88.7012 88.7058 91.1345C87.0543 93.5536 84.5712 95.0109 81.2565 95.5062C77.9417 96.0016 75.134 95.3351 72.8332 93.5067C70.5467 91.6761 69.1303 88.9334 68.5841 85.2787L68.5428 85.0025ZM74.7502 84.531C75.0763 86.7125 75.7369 88.3226 76.7321 89.3614C77.7252 90.386 78.9867 90.784 80.5166 90.5554C82.0039 90.3331 83.0808 89.5929 83.7472 88.3347C84.4115 87.0624 84.5563 85.1726 84.1816 82.6653C83.8619 80.5263 83.1963 78.9313 82.1848 77.8805C81.1734 76.8297 79.9098 76.4175 78.394 76.644C76.8925 76.8684 75.8188 77.6299 75.1729 78.9284C74.5249 80.2128 74.384 82.0803 74.7502 84.531ZM93.2185 81.3581C92.6914 77.8309 93.1027 74.8658 94.4524 72.4628C95.8163 70.0577 97.9219 68.6424 100.769 68.2169C103.291 67.84 105.382 68.4109 107.042 69.9295L106.973 67.7241L112.541 66.8921L115.862 89.1179C116.163 91.1294 115.964 92.9477 115.265 94.5727C114.581 96.1955 113.469 97.5204 111.928 98.5472C110.387 99.574 108.504 100.254 106.28 100.586C104.594 100.838 102.9 100.743 101.198 100.303C99.4979 99.8762 98.1576 99.1931 97.1773 98.2535L99.3381 94.1073C101.124 95.5927 103.108 96.1724 105.289 95.8464C106.919 95.6029 108.121 94.9743 108.896 93.9605C109.673 92.9609 109.943 91.6608 109.703 90.0601L109.519 88.8277C108.342 90.6401 106.599 91.7188 104.29 92.0639C101.527 92.4767 99.1284 91.7346 97.0925 89.8376C95.0688 87.9243 93.7901 85.1828 93.2566 81.6131L93.2185 81.3581ZM99.426 80.8866C99.7372 82.9689 100.4 84.5426 101.413 85.6076C102.425 86.6585 103.66 87.0748 105.119 86.8568C106.989 86.5773 108.223 85.6761 108.821 84.153L107.376 74.485C106.344 73.2054 104.915 72.7021 103.088 72.9752C101.615 73.1954 100.543 73.971 99.873 75.3021C99.2172 76.6311 99.0682 78.4926 99.426 80.8866ZM131.059 70.0115C130.206 70.0231 129.461 70.0765 128.823 70.1717C126.5 70.5189 125.095 71.5327 124.607 73.2131L126.856 88.2569L120.715 89.1747L117.279 66.1839L123.08 65.317L123.659 68.0326C124.576 65.7378 126.126 64.4273 128.307 64.1013C128.987 63.9997 129.638 63.9965 130.261 64.0917L131.059 70.0115ZM149.294 84.9035C148.928 84.3934 148.62 83.7371 148.37 82.9345C147.13 84.8142 145.32 85.9318 142.941 86.2875C140.688 86.6241 138.721 86.2519 137.039 85.171C135.371 84.0879 134.389 82.5548 134.092 80.5716C133.728 78.1352 134.348 76.1309 135.952 74.5588C137.571 72.9845 140.086 71.9352 143.498 71.4109L146.324 70.9885L146.127 69.6711C145.968 68.6087 145.565 67.8 144.917 67.2452C144.284 66.6882 143.379 66.4975 142.203 66.6732C141.169 66.8278 140.392 67.1974 139.871 67.7821C139.364 68.3647 139.175 69.0881 139.304 69.9522L133.164 70.8699C132.965 69.5383 133.191 68.2445 133.844 66.9885C134.496 65.7325 135.525 64.6735 136.931 63.8117C138.335 62.9356 139.972 62.3579 141.842 62.0784C144.675 61.655 147.028 62.0348 148.899 63.2179C150.782 64.3846 151.916 66.2571 152.302 68.8352L153.791 78.8007C154.131 80.9801 154.682 82.5848 155.445 83.615L155.499 83.9762L149.294 84.9035ZM143.577 81.3915C144.484 81.2561 145.29 80.9328 145.996 80.4219C146.699 79.8967 147.184 79.2667 147.451 78.5317L146.86 74.5795L144.566 74.9225C141.492 75.3819 140.014 76.6888 140.134 78.8433L140.166 79.2077C140.281 79.9726 140.644 80.5628 141.256 80.9781C141.869 81.3935 142.642 81.5313 143.577 81.3915ZM161.624 59.5565L162.2 62.0989C163.53 59.8581 165.584 58.5302 168.36 58.1153C171.321 57.6728 173.528 58.5377 174.983 60.7099C176.248 58.1312 178.375 56.6185 181.364 56.1718C183.857 55.7992 185.822 56.2514 187.258 57.5284C188.693 58.7912 189.628 60.8817 190.064 63.7998L192.258 78.4825L186.096 79.4034L183.905 64.742C183.71 63.4388 183.313 62.5278 182.715 62.009C182.114 61.4761 181.169 61.306 179.88 61.4986C178.038 61.7739 176.894 62.8427 176.449 64.7051L178.829 80.4894L172.689 81.4072L170.501 66.767C170.302 65.4355 169.895 64.5114 169.282 63.9948C168.669 63.4781 167.733 63.314 166.472 63.5024C164.729 63.7628 163.577 64.6737 163.013 66.235L165.443 82.4901L159.302 83.4078L155.866 60.417L161.624 59.5565ZM210.319 75.7832C209.954 75.2731 209.645 74.6168 209.395 73.8142C208.155 75.6939 206.346 76.8115 203.966 77.1672C201.714 77.5038 199.746 77.1316 198.064 76.0507C196.396 74.9676 195.414 73.4345 195.118 71.4513C194.753 69.0149 195.374 67.0106 196.978 65.4385C198.596 63.8642 201.111 62.8149 204.523 62.2906L207.349 61.8682L207.152 60.5508C206.993 59.4884 206.59 58.6797 205.943 58.1249C205.309 57.5679 204.404 57.3772 203.229 57.5529C202.194 57.7075 201.417 58.0771 200.896 58.6618C200.389 59.2444 200.201 59.9678 200.33 60.8319L194.189 61.7496C193.99 60.418 194.217 59.1242 194.869 57.8682C195.521 56.6122 196.55 55.5532 197.957 54.6914C199.361 53.8153 200.998 53.2376 202.868 52.9581C205.701 52.5347 208.053 52.9145 209.924 54.0976C211.807 55.2643 212.942 57.1367 213.327 59.7149L214.816 69.6804C215.157 71.8598 215.708 73.4645 216.47 74.4947L216.524 74.8559L210.319 75.7832ZM204.603 72.2712C205.509 72.1357 206.315 71.8125 207.021 71.3016C207.725 70.7764 208.21 70.1464 208.476 69.4114L207.886 65.4592L205.591 65.8022C202.517 66.2616 201.04 67.5685 201.159 69.723L201.192 70.0874C201.306 70.8523 201.669 71.4425 202.282 71.8578C202.894 72.2732 203.668 72.411 204.603 72.2712ZM217.628 62.765C217.092 59.1811 217.466 56.2072 218.749 53.8431C220.046 51.4769 222.09 50.0853 224.881 49.6682C227.119 49.3337 229.093 49.8932 230.802 51.3467L229.049 39.6176L235.211 38.6967L240.088 71.3342L234.543 72.163L233.88 69.7639C232.636 71.9049 230.81 73.1554 228.402 73.5153C225.696 73.9196 223.363 73.1822 221.402 71.3029C219.453 69.4074 218.195 66.5614 217.628 62.765ZM223.835 62.2935C224.157 64.4467 224.779 66.0409 225.701 67.0761C226.624 68.1113 227.8 68.522 229.231 68.3081C231.129 68.0245 232.348 67.024 232.888 65.3069L231.532 56.2338C230.528 54.7474 229.084 54.145 227.2 54.4266C224.239 54.8691 223.118 57.4914 223.835 62.2935ZM242.142 59.0579C241.801 56.7772 241.937 54.6789 242.548 52.7627C243.16 50.8466 244.214 49.277 245.711 48.054C247.222 46.8289 249.069 46.0533 251.25 45.7273C254.353 45.2637 257.023 45.8349 259.261 47.4409C261.514 49.0448 262.997 51.4589 263.711 54.6831L263.988 56.2491C264.516 59.7764 263.954 62.7566 262.305 65.1899C260.654 67.609 258.171 69.0663 254.856 69.5617C251.541 70.057 248.733 69.3905 246.433 67.5621C244.146 65.7315 242.73 62.9889 242.183 59.3341L242.142 59.0579ZM248.35 58.5864C248.676 60.7679 249.336 62.378 250.331 63.4168C251.325 64.4414 252.586 64.8394 254.116 64.6108C255.603 64.3885 256.68 63.6483 257.347 62.3901C258.011 61.1178 258.156 59.228 257.781 56.7207C257.461 54.5817 256.796 52.9867 255.784 51.9359C254.773 50.8851 253.509 50.4729 251.993 50.6994C250.492 50.9238 249.418 51.6853 248.772 52.9838C248.124 54.2682 247.983 56.1357 248.35 58.5864ZM279.797 47.7823C278.945 47.7939 278.199 47.8473 277.562 47.9426C275.239 48.2898 273.834 49.3036 273.346 50.9839L275.594 66.0278L269.454 66.9455L266.018 43.9548L271.818 43.0878L272.398 45.8035C273.315 43.5086 274.864 42.1982 277.046 41.8721C277.726 41.7705 278.377 41.7673 278.999 41.8626L279.797 47.7823Z" fill="#10943F"/>
<g clip-path="url(#clip0)">
<path d="M212.284 100.204L213.727 139.243L224.223 126.402L240.8 126.905L212.284 100.204Z" fill="#191414" stroke="black" stroke-width="4" stroke-linecap="round" stroke-linejoin="round"/>
<path d="M224.746 127.55L232.223 143.958" stroke="black" stroke-width="4" stroke-linecap="round" stroke-linejoin="round"/>
</g>
<defs>
<clipPath id="clip0">
<rect width="51" height="51" fill="white" transform="translate(208.545 92) rotate(20.5)"/>
</clipPath>
</defs>
</svg>
